<?xml version="1.0" standalone="no"?>
 <!DOCTYPE svg PUBLIC "-//W3C//DTD SVG 1.1//EN" 
 "http://www.w3.org/Graphics/SVG/1.1/DTD/svg11.dtd"> 
<svg xmlns="http://www.w3.org/2000/svg" version="1.1" 
    width="21.0007cm" height="29.7002cm" viewBox="0 0 82680 116930 ">
<title>SVG Picture created as vfd_driver-F.SilkS.svg date 2017/11/25 06:31:12 </title>
  <desc>Picture generated by PCBNEW </desc>
<g style="fill:#000000; fill-opacity:1;stroke:#000000; stroke-opacity:1;
stroke-linecap:round; stroke-linejoin:round; "
 transform="translate(0 0) scale(1 1)">
</g>
<g style="fill:#000000; fill-opacity:0.0; 
stroke:#000000; stroke-width:-0.000393701; stroke-opacity:1; 
stroke-linecap:round; stroke-linejoin:round;">
</g>
<g style="fill:#000000; fill-opacity:0.0; 
stroke:#000000; stroke-width:47.2441; stroke-opacity:1; 
stroke-linecap:round; stroke-linejoin:round;">
<path d="M17405 18420
L16894 18420
" />
<path d="M17150 18183
L17150 18656
" />
<path d="M16764.4 20378.8 A921.26 921.26 0.0 0 0 17535.8 20378.7 " />
<path d="M16764.2 18705.6 A921.26 921.26 0.0 0 0 16764.4 20378.8 " />
<path d="M17535.6 20378.8 A921.26 921.26 0.0 0 0 17535.8 18705.6 " />
<path d="M8400 17250
L8400 15250
" />
<path d="M6651 17250
L6651 15250
" />
<path d="M9148 15250
L9148 17250
" />
<path d="M9148 15250
L6651 15250
" />
<path d="M9148 17250
L6651 17250
" />
<path d="M17072 7709
L17072 8590
" />
<path d="M16678 8590
L16237 8590
" />
<path d="M16237 8590
L16237 8150
" />
</g>
<g style="fill:#000000; fill-opacity:0.0; 
stroke:#000000; stroke-width:78.7402; stroke-opacity:1; 
stroke-linecap:round; stroke-linejoin:round;">
<path d="M72977 7362
L13922 7362
" />
<path d="M72977 17598
L72977 7362
" />
<path d="M13922 17598
L72977 17598
" />
<path d="M13922 7362
L13922 17598
" />
<path d="M73272 17894
L73272 7067
" />
<path d="M10083 17894
L73272 17894
" />
<path d="M10083 7165
L10083 17894
" />
<path d="M10083 7067
L73272 7067
" />
<path d="M10083 7165
L10083 7067
" />
</g>
<g style="fill:#000000; fill-opacity:0.0; 
stroke:#000000; stroke-width:47.2441; stroke-opacity:1; 
stroke-linecap:round; stroke-linejoin:round;">
<path d="M75300 9500
L75300 11500
" />
<path d="M77048 9500
L77048 11500
" />
<path d="M74551 11500
L74551 9500
" />
<path d="M74551 11500
L77048 11500
" />
<path d="M74551 9500
L77048 9500
" />
</g>
<g style="fill:#000000; fill-opacity:0.0; 
stroke:#000000; stroke-width:59.0551; stroke-opacity:1; 
stroke-linecap:round; stroke-linejoin:round;">
<path d="M18593 19607
L18612 19626
L18631 19682
L18631 19720
L18612 19776
L18575 19813
L18537 19832
L18462 19851
L18406 19851
L18331 19832
L18293 19813
L18256 19776
L18237 19720
L18237 19682
L18256 19626
L18275 19607
" />
<path d="M18237 19476
L18237 19232
L18387 19364
L18387 19307
L18406 19270
L18425 19251
L18462 19232
L18556 19232
L18593 19251
L18612 19270
L18631 19307
L18631 19420
L18612 19457
L18593 19476
" />
<path d="M9219 16381
L9501 16381
L9557 16399
L9594 16437
L9613 16493
L9613 16531
" />
<path d="M9613 15987
L9613 16212
" />
<path d="M9613 16100
L9219 16100
L9276 16137
L9313 16175
L9332 16212
" />
<path d="M73788 19631
L74069 19631
L74125 19649
L74163 19687
L74182 19743
L74182 19781
" />
<path d="M73825 19462
L73807 19443
L73788 19406
L73788 19312
L73807 19275
L73825 19256
L73863 19237
L73900 19237
L73957 19256
L74182 19481
L74182 19237
" />
<path d="M7368 17788
L7368 18069
L7350 18125
L7312 18163
L7256 18182
L7218 18182
" />
<path d="M7518 17788
L7762 17788
L7631 17938
L7687 17938
L7724 17957
L7743 17975
L7762 18013
L7762 18107
L7743 18144
L7724 18163
L7687 18182
L7574 18182
L7537 18163
L7518 18144
" />
<path d="M7368 5288
L7368 5569
L7350 5625
L7312 5663
L7256 5682
L7218 5682
" />
<path d="M7724 5419
L7724 5682
" />
<path d="M7631 5269
L7537 5550
L7781 5550
" />
<path d="M75368 5288
L75368 5569
L75350 5625
L75312 5663
L75256 5682
L75218 5682
" />
<path d="M75743 5288
L75556 5288
L75537 5475
L75556 5457
L75593 5438
L75687 5438
L75724 5457
L75743 5475
L75762 5513
L75762 5607
L75743 5644
L75724 5663
L75687 5682
L75593 5682
L75556 5663
L75537 5644
" />
<path d="M15628 8281
L15909 8281
L15965 8299
L16003 8337
L16021 8393
L16021 8431
" />
<path d="M15628 7925
L15628 8000
L15646 8037
L15665 8056
L15721 8093
L15796 8112
L15946 8112
L15984 8093
L16003 8075
L16021 8037
L16021 7962
L16003 7925
L15984 7906
L15946 7887
L15853 7887
L15815 7906
L15796 7925
L15778 7962
L15778 8037
L15796 8075
L15815 8093
L15853 8112
" />
<path d="M74048 10631
L74330 10631
L74386 10649
L74423 10687
L74442 10743
L74442 10781
" />
<path d="M74048 10481
L74048 10218
L74442 10387
" />
</g> 
</svg>
