<?xml version="1.0" standalone="no"?>
 <!DOCTYPE svg PUBLIC "-//W3C//DTD SVG 1.1//EN" 
 "http://www.w3.org/Graphics/SVG/1.1/DTD/svg11.dtd"> 
<svg xmlns="http://www.w3.org/2000/svg" version="1.1" 
    width="21.0007cm" height="29.7002cm" viewBox="0 0 82680 116930 ">
<title>SVG Picture created as vfd_driver-F.SilkS.svg date 2017/11/11 08:15:52 </title>
  <desc>Picture generated by PCBNEW </desc>
<g style="fill:#000000; fill-opacity:1;stroke:#000000; stroke-opacity:1;
stroke-linecap:round; stroke-linejoin:round; "
 transform="translate(0 0) scale(1 1)">
</g>
<g style="fill:#000000; fill-opacity:0.0; 
stroke:#000000; stroke-width:-0.000393701; stroke-opacity:1; 
stroke-linecap:round; stroke-linejoin:round;">
</g>
<g style="fill:#000000; fill-opacity:0.0; 
stroke:#000000; stroke-width:47.2441; stroke-opacity:1; 
stroke-linecap:round; stroke-linejoin:round;">
<path d="M9894 17329
L10405 17329
" />
<path d="M10150 17566
L10150 17093
" />
<path d="M10535.6 15371.2 A921.26 921.26 0.0 0 0 9764.17 15371.3 " />
<path d="M10535.8 17044.4 A921.26 921.26 0.0 0 0 10535.6 15371.2 " />
<path d="M9764.44 15371.2 A921.26 921.26 0.0 0 0 9764.17 17044.4 " />
<path d="M12135.6 20078.8 A921.26 921.26 0.0 0 0 12135.8 18405.6 " />
<path d="M11364.2 18405.6 A921.26 921.26 0.0 0 0 11364.4 20078.8 " />
<path d="M11364.4 20078.8 A921.26 921.26 0.0 0 0 12135.8 20078.7 " />
<path d="M11750 17883
L11750 18356
" />
<path d="M12005 18120
L11494 18120
" />
<path d="M8400 17250
L8400 15250
" />
<path d="M6651 17250
L6651 15250
" />
<path d="M9148 15250
L9148 17250
" />
<path d="M9148 15250
L6651 15250
" />
<path d="M9148 17250
L6651 17250
" />
<path d="M17472 7809
L17472 8690
" />
<path d="M17078 8690
L16637 8690
" />
<path d="M16637 8690
L16637 8250
" />
</g>
<g style="fill:#000000; fill-opacity:0.0; 
stroke:#000000; stroke-width:78.7402; stroke-opacity:1; 
stroke-linecap:round; stroke-linejoin:round;">
<path d="M73377 7462
L14322 7462
" />
<path d="M73377 17698
L73377 7462
" />
<path d="M14322 17698
L73377 17698
" />
<path d="M14322 7462
L14322 17698
" />
<path d="M73672 17994
L73672 7167
" />
<path d="M10483 17994
L73672 17994
" />
<path d="M10483 7265
L10483 17994
" />
<path d="M10483 7167
L73672 7167
" />
<path d="M10483 7265
L10483 7167
" />
</g>
<g style="fill:#000000; fill-opacity:0.0; 
stroke:#000000; stroke-width:59.0551; stroke-opacity:1; 
stroke-linecap:round; stroke-linejoin:round;">
<path d="M8987 16273
L9006 16292
L9024 16348
L9024 16385
L9006 16442
L8968 16479
L8931 16498
L8856 16517
L8799 16517
L8724 16498
L8687 16479
L8650 16442
L8631 16385
L8631 16348
L8650 16292
L8668 16273
" />
<path d="M8631 16142
L8631 15898
L8781 16029
L8781 15973
L8799 15936
L8818 15917
L8856 15898
L8949 15898
L8987 15917
L9006 15936
L9024 15973
L9024 16086
L9006 16123
L8987 16142
" />
<path d="M13193 19307
L13212 19326
L13231 19382
L13231 19420
L13212 19476
L13175 19513
L13137 19532
L13062 19551
L13006 19551
L12931 19532
L12893 19513
L12856 19476
L12837 19420
L12837 19382
L12856 19326
L12875 19307
" />
<path d="M12968 18970
L13231 18970
" />
<path d="M12818 19064
L13100 19157
L13100 18914
" />
<path d="M9219 16381
L9501 16381
L9557 16399
L9594 16437
L9613 16493
L9613 16531
" />
<path d="M9613 15987
L9613 16212
" />
<path d="M9613 16100
L9219 16100
L9276 16137
L9313 16175
L9332 16212
" />
<path d="M7618 7238
L7618 7519
L7600 7575
L7562 7613
L7506 7632
L7468 7632
" />
<path d="M7974 7238
L7899 7238
L7862 7257
L7843 7275
L7806 7332
L7787 7407
L7787 7557
L7806 7594
L7824 7613
L7862 7632
L7937 7632
L7974 7613
L7993 7594
L8012 7557
L8012 7463
L7993 7425
L7974 7407
L7937 7388
L7862 7388
L7824 7407
L7806 7425
L7787 7463
" />
<path d="M75418 7338
L75418 7619
L75400 7675
L75362 7713
L75306 7732
L75268 7732
" />
<path d="M75568 7338
L75831 7338
L75662 7732
" />
<path d="M7368 17788
L7368 18069
L7350 18125
L7312 18163
L7256 18182
L7218 18182
" />
<path d="M7612 17957
L7574 17938
L7556 17919
L7537 17882
L7537 17863
L7556 17825
L7574 17807
L7612 17788
L7687 17788
L7724 17807
L7743 17825
L7762 17863
L7762 17882
L7743 17919
L7724 17938
L7687 17957
L7612 17957
L7574 17975
L7556 17994
L7537 18032
L7537 18107
L7556 18144
L7574 18163
L7612 18182
L7687 18182
L7724 18163
L7743 18144
L7762 18107
L7762 18032
L7743 17994
L7724 17975
L7687 17957
" />
<path d="M75368 17788
L75368 18069
L75350 18125
L75312 18163
L75256 18182
L75218 18182
" />
<path d="M75574 18182
L75649 18182
L75687 18163
L75706 18144
L75743 18088
L75762 18013
L75762 17863
L75743 17825
L75724 17807
L75687 17788
L75612 17788
L75574 17807
L75556 17825
L75537 17863
L75537 17957
L75556 17994
L75574 18013
L75612 18032
L75687 18032
L75724 18013
L75743 17994
L75762 17957
" />
<path d="M16028 8381
L16309 8381
L16365 8399
L16403 8437
L16421 8493
L16421 8531
" />
<path d="M16065 8212
L16046 8193
L16028 8156
L16028 8062
L16046 8025
L16065 8006
L16103 7987
L16140 7987
L16196 8006
L16421 8231
L16421 7987
" />
</g> 
</svg>
