M48
;DRILL file {KiCad 4.0.7-e2-6376~58~ubuntu16.04.1} date Sat Nov 25 06:37:30 2017
;FORMAT={-:-/ absolute / metric / decimal}
FMAT,2
METRIC,TZ
T1C0.400
T2C0.800
T3C1.000
T4C3.200
%
G90
G05
M71
T1
X16.891Y-24.257
X28.702Y-27.051
X28.702Y-43.18
X44.958Y-45.212
X45.212Y-33.655
X45.212Y-43.434
X45.974Y-24.13
X57.658Y-45.212
X58.674Y-44.196
X70.993Y-43.307
X71.628Y-44.196
X83.693Y-43.307
X84.582Y-44.196
X97.917Y-44.196
X98.679Y-43.434
X111.506Y-43.434
X112.268Y-44.196
X119.634Y-44.196
X120.65Y-45.212
X125.095Y-48.387
X132.334Y-48.387
X137.795Y-45.212
X138.811Y-44.323
X154.178Y-44.323
X155.067Y-45.212
X171.45Y-45.212
T2
X25.4Y-39.41
X25.4Y-41.91
X42.363Y-20.701
X43.561Y-48.387
X43.561Y-50.887
X44.363Y-20.701
X46.363Y-20.701
X48.363Y-20.701
X50.363Y-20.701
X52.363Y-20.701
X54.363Y-20.701
X56.363Y-20.701
X58.363Y-20.701
X60.363Y-20.701
X62.363Y-20.701
X64.363Y-20.701
X66.363Y-20.701
X68.363Y-20.701
X70.363Y-20.701
X72.363Y-20.701
X74.363Y-20.701
X76.363Y-20.701
X78.363Y-20.701
X80.363Y-20.701
X82.363Y-20.701
X84.363Y-20.701
X86.363Y-20.701
X88.363Y-20.701
X90.363Y-20.701
X92.363Y-20.701
X94.363Y-20.701
X96.363Y-20.701
X98.363Y-20.701
X100.363Y-20.701
X102.363Y-20.701
X104.363Y-20.701
X106.363Y-20.701
X108.363Y-20.701
X110.363Y-20.701
X112.363Y-20.701
X114.363Y-20.701
X116.363Y-20.701
X118.363Y-20.701
X120.363Y-20.701
X122.363Y-20.701
X124.363Y-20.701
X126.363Y-20.701
X128.363Y-20.701
X130.363Y-20.701
X132.363Y-20.701
X134.363Y-20.701
X136.363Y-20.701
X138.363Y-20.701
X140.363Y-20.701
X142.363Y-20.701
X144.363Y-20.701
X146.363Y-20.701
X148.363Y-20.701
X150.363Y-20.701
X152.363Y-20.701
X154.363Y-20.701
X156.363Y-20.701
X158.363Y-20.701
X160.363Y-20.701
X162.363Y-20.701
X164.363Y-20.701
X166.363Y-20.701
X168.363Y-20.701
X170.363Y-20.701
X172.363Y-20.701
X174.363Y-20.701
X176.363Y-20.701
X178.363Y-20.701
T3
X20.066Y-40.005
X20.066Y-42.545
X192.532Y-25.4
X192.532Y-27.94
T4
X19.05Y-17.78
X19.05Y-49.53
X191.77Y-17.78
X191.77Y-49.53
T0
M30
